<svg xmlns="http://www.w3.org/2000/svg" viewBox="0 0 1600 900" role="img" aria-label="Mass marriage ceremony placeholder">
  <defs>
    <linearGradient id="bg" x1="0" x2="1" y1="0" y2="1">
      <stop offset="0" stop-color="#3a1d0b"/>
      <stop offset="0.55" stop-color="#b44600"/>
      <stop offset="1" stop-color="#ff8a32"/>
    </linearGradient>
    <radialGradient id="glow" cx="70%" cy="30%" r="60%">
      <stop offset="0" stop-color="#fff5eb" stop-opacity="0.52"/>
      <stop offset="1" stop-color="#fff5eb" stop-opacity="0"/>
    </radialGradient>
  </defs>
  <rect width="1600" height="900" fill="url(#bg)"/>
  <rect width="1600" height="900" fill="url(#glow)"/>
  <g fill="#fff5eb" opacity="0.16">
    <circle cx="220" cy="720" r="170"/>
    <circle cx="520" cy="720" r="170"/>
    <circle cx="820" cy="720" r="170"/>
    <circle cx="1120" cy="720" r="170"/>
    <circle cx="1420" cy="720" r="170"/>
  </g>
  <g fill="#ffffff" opacity="0.22">
    <path d="M0 610c220-90 420-70 610-8 250 82 505 120 990-20v318H0z"/>
    <path d="M0 700c255-75 486-52 720 16 244 70 520 68 880-44v228H0z" opacity="0.55"/>
  </g>
  <text x="80" y="160" fill="#ffffff" font-family="Poppins, Arial, sans-serif" font-size="62" font-weight="700">Trust Ceremony Image</text>
  <text x="82" y="220" fill="#fff5eb" font-family="Poppins, Arial, sans-serif" font-size="30">Replace this file with a real hero photo</text>
</svg>
