<?xml version="1.0" encoding="utf-8"?>
<!-- Uploaded to: SVG Repo, www.svgrepo.com, Generator: SVG Repo Mixer Tools -->
<svg fill="#000000" width="800px" height="800px" viewBox="0 0 32 32" version="1.1" xmlns="http://www.w3.org/2000/svg">
<title>file-certificate</title>
<path d="M27.218 9.838c-0.008-0.059-0.018-0.111-0.032-0.162l0.002 0.008c-0.052-0.222-0.158-0.414-0.303-0.568l0.001 0.001-8-8c-0.155-0.146-0.348-0.252-0.563-0.302l-0.008-0.002c-0.041-0.012-0.092-0.022-0.143-0.029l-0.006-0.001c-0.046-0.013-0.101-0.024-0.158-0.032l-0.006-0.001h-12c-0.69 0-1.25 0.56-1.25 1.25v0 28c0 0.69 0.56 1.25 1.25 1.25h20c0.69-0.001 1.249-0.56 1.25-1.25v-20c-0.008-0.062-0.019-0.117-0.034-0.171l0.002 0.009zM22.982 8.75h-3.732v-3.732zM7.25 28.75v-25.5h9.5v6.75c0 0.69 0.56 1.25 1.25 1.25v0h6.75v17.5zM21.135 17.003c0-0.008 0-0.018 0-0.028 0-2.836-2.299-5.135-5.135-5.135s-5.135 2.299-5.135 5.135c0 1.345 0.517 2.57 1.364 3.485l-0.003-0.003-1.454 5.709c-0.025 0.093-0.039 0.2-0.039 0.31 0 0.69 0.559 1.249 1.249 1.249 0.193 0 0.376-0.044 0.54-0.122l-0.008 0.003 3.486-1.635 3.486 1.635c0.156 0.075 0.339 0.119 0.532 0.119 0.69 0 1.249-0.559 1.249-1.249 0-0.109-0.014-0.215-0.040-0.317l0.002 0.009-1.449-5.717c0.837-0.903 1.352-2.115 1.356-3.447v-0.001zM16 14.368c0 0 0 0 0 0 1.455 0 2.635 1.18 2.635 2.635s-1.18 2.635-2.635 2.635c-1.455 0-2.635-1.18-2.635-2.635 0-0 0-0 0-0.001v0c0.001-1.455 1.18-2.633 2.635-2.635h0zM16.531 23.459c-0.155-0.076-0.338-0.12-0.531-0.12s-0.376 0.044-0.539 0.123l0.007-0.003-1.622 0.76 0.598-2.347c0.463 0.169 0.998 0.267 1.556 0.267 0.559 0 1.096-0.098 1.593-0.279l-0.032 0.010 0.596 2.351z"></path>
</svg>